<svg width="128" height="128" viewBox="0 0 128 128" fill="none" xmlns="http://www.w3.org/2000/svg">
<path fill-rule="evenodd" clip-rule="evenodd" d="M64 6.66675C50.0088 6.66675 38.6667 18.0089 38.6667 32.0001C38.6667 45.9913 50.0088 57.3334 64 57.3334C77.9915 57.3334 89.3333 45.9913 89.3333 32.0001C89.3333 18.0089 77.9915 6.66675 64 6.66675ZM46.6667 32.0001C46.6667 22.4271 54.4272 14.6667 64 14.6667C73.5728 14.6667 81.3333 22.4271 81.3333 32.0001C81.3333 41.573 73.5728 49.3334 64 49.3334C54.4272 49.3334 46.6667 41.573 46.6667 32.0001Z" fill="url(#paint0_linear_2004_665)"/>
<path fill-rule="evenodd" clip-rule="evenodd" d="M64 65.3333C53.1236 65.3333 43.0801 67.8442 35.6168 72.1087C28.2667 76.3087 22.6667 82.7205 22.6667 90.6666C22.6667 98.6127 28.2667 105.024 35.6168 109.224C43.0801 113.489 53.1236 116 64 116C74.8763 116 84.92 113.489 92.3835 109.224C99.7333 105.024 105.333 98.6127 105.333 90.6666C105.333 82.7205 99.7333 76.3087 92.3835 72.1087C84.92 67.8442 74.8763 65.3333 64 65.3333ZM30.6667 90.6666C30.6667 86.8303 33.4241 82.5759 39.5859 79.0548C45.6346 75.5983 54.2576 73.3333 64 73.3333C73.7424 73.3333 82.3653 75.5983 88.4139 79.0548C94.576 82.5759 97.3333 86.8303 97.3333 90.6666C97.3333 94.5028 94.576 98.7573 88.4139 102.278C82.3653 105.735 73.7424 108 64 108C54.2576 108 45.6346 105.735 39.5859 102.278C33.4241 98.7573 30.6667 94.5028 30.6667 90.6666Z" fill="url(#paint1_linear_2004_665)"/>
<defs>
<linearGradient id="paint0_linear_2004_665" x1="89.3333" y1="32.0001" x2="38.6667" y2="32.0022" gradientUnits="userSpaceOnUse">
<stop stop-color="#BFBFBF"/>
<stop offset="1" stop-color="#BFBFBF"/>
</linearGradient>
<linearGradient id="paint1_linear_2004_665" x1="105.333" y1="90.6666" x2="22.6667" y2="90.6721" gradientUnits="userSpaceOnUse">
<stop stop-color="#BFBFBF"/>
<stop offset="1" stop-color="#BFBFBF"/>
</linearGradient>
</defs>
</svg>
