<svg width="64" height="64" viewBox="0 0 64 64" fill="none" xmlns="http://www.w3.org/2000/svg">
<path fill-rule="evenodd" clip-rule="evenodd" d="M19.4849 3.33325C17.349 3.33253 15.8833 3.33205 14.5807 3.68915C11.8458 4.43891 9.55775 6.31464 8.28617 8.84944C7.68055 10.0567 7.39359 11.494 6.9754 13.5886L5.32313 21.8502C4.70553 24.9383 5.5518 27.9248 7.33276 30.164V37.4838C7.33271 42.3846 7.33268 46.2662 7.74111 49.304C8.16145 52.4304 9.04711 54.9611 11.0427 56.9566C13.0384 58.9523 15.5689 59.8379 18.6953 60.2584C21.7333 60.6667 25.6149 60.6667 30.5158 60.6667H33.4832C38.3838 60.6667 42.2656 60.6667 45.3035 60.2584C48.4299 59.8379 50.9606 58.9523 52.956 56.9566C54.9518 54.9611 55.8374 52.4304 56.2576 49.304C56.6662 46.2662 56.6662 42.3846 56.6662 37.4838V30.164C58.447 27.9248 59.2934 24.9383 58.6758 21.8502L57.0235 13.5886C56.6054 11.494 56.3184 10.0567 55.7128 8.84944C54.4411 6.31464 52.1531 4.43891 49.4182 3.68915C48.1155 3.33205 46.6499 3.33253 44.5139 3.33325H19.4849ZM48.7152 34C50.1256 34 51.4584 33.716 52.6662 33.2064V37.3334C52.6662 42.4182 52.6619 46.0307 52.2934 48.771C51.9326 51.4539 51.2563 52.9998 50.1278 54.1283C48.9992 55.2568 47.4534 55.9334 44.7704 56.2939C43.5824 56.4536 42.2307 56.5451 40.6662 56.5971V49.2475C40.6662 48.0747 40.6662 47.063 40.591 46.2328C40.5112 45.3552 40.3352 44.4859 39.8622 43.6667C39.3355 42.7544 38.5782 41.9971 37.6662 41.4704C36.847 40.9976 35.9776 40.8214 35.0998 40.7419C34.2696 40.6667 33.2582 40.6667 32.0854 40.6667H31.9134C30.7408 40.6667 29.7291 40.6667 28.899 40.7419C28.0211 40.8214 27.152 40.9976 26.3328 41.4704C25.4206 41.9971 24.6632 42.7544 24.1366 43.6667C23.6636 44.4859 23.4875 45.3552 23.4079 46.2328C23.3327 47.063 23.3327 48.0747 23.3328 49.2475V56.5971C21.7681 56.5451 20.4163 56.4536 19.2284 56.2939C16.5455 55.9334 14.9997 55.2568 13.8712 54.1283C12.7426 52.9998 12.0661 51.4539 11.7055 48.771C11.337 46.0307 11.3328 42.4182 11.3328 37.3334V33.2062C12.5404 33.716 13.8732 34 15.2836 34C18.6807 34 21.718 32.3243 23.5676 29.7222C25.4596 32.3038 28.5144 34 31.999 34C35.4835 34 38.5387 32.3035 40.4307 29.7214C42.2803 32.324 45.3179 34 48.7152 34ZM27.3328 56.6614C28.3686 56.6664 29.4771 56.6667 30.6662 56.6667H33.3328C34.5219 56.6667 35.6304 56.6664 36.6662 56.6614V49.3334C36.6662 48.0504 36.664 47.2219 36.6072 46.5939C36.5528 45.9936 36.4611 45.7758 36.3982 45.6667C36.2227 45.3627 35.9702 45.1102 35.6662 44.9347C35.5571 44.8718 35.3392 44.78 34.7387 44.7254C34.111 44.6686 33.2824 44.6667 31.9995 44.6667C30.7166 44.6667 29.888 44.6686 29.26 44.7254C28.6598 44.78 28.4416 44.8718 28.3328 44.9347C28.0288 45.1102 27.7763 45.3627 27.6006 45.6667C27.5379 45.7758 27.4459 45.9936 27.3915 46.5939C27.3347 47.2219 27.3328 48.0504 27.3328 49.3334V56.6614ZM23.1222 7.33333H19.78C17.2348 7.33333 16.3533 7.3508 15.6383 7.54683C13.9973 7.99667 12.6245 9.12211 11.8615 10.643C11.5291 11.3057 11.3391 12.1666 10.8399 14.6624L9.24545 22.6347C8.4834 26.445 11.3978 30 15.2836 30C18.4471 30 21.0959 27.603 21.4107 24.455L21.5936 22.626L21.6042 22.514L23.1222 7.33333ZM25.5761 23L27.1427 7.33333H36.8555L38.4134 22.912C38.7928 26.707 35.8128 30 31.999 30C28.2144 30 25.251 26.7576 25.5761 23ZM48.3606 7.54683C47.6456 7.3508 46.764 7.33333 44.219 7.33333H40.876L42.5883 24.455C42.903 27.603 45.5518 30 48.7152 30C52.6011 30 55.5155 26.445 54.7534 22.6347L53.159 14.6624C52.6598 12.1666 52.4699 11.3057 52.1374 10.643C51.3744 9.12211 50.0016 7.99667 48.3606 7.54683Z" fill="url(#paint0_linear_2099_1020)"/>
<defs>
<linearGradient id="paint0_linear_2099_1020" x1="58.8765" y1="31.9999" x2="5.12244" y2="32.002" gradientUnits="userSpaceOnUse">
<stop stop-color="#FC1A70"/>
<stop offset="1" stop-color="#FFB901"/>
</linearGradient>
</defs>
</svg>
