<svg width="64" height="64" viewBox="0 0 64 64" fill="none" xmlns="http://www.w3.org/2000/svg">
<path fill-rule="evenodd" clip-rule="evenodd" d="M28.2495 6.18353C30.6213 5.04991 33.3786 5.04991 35.7503 6.18353C36.7807 6.67601 37.7247 7.48135 39.0322 8.59644C39.0999 8.65433 39.169 8.71305 39.2389 8.7726C39.8735 9.31364 40.0735 9.47999 40.2759 9.61559C40.7906 9.96049 41.3685 10.1999 41.9762 10.3199C42.2151 10.367 42.4741 10.3908 43.3055 10.4571C43.397 10.4644 43.4874 10.4716 43.5762 10.4786C45.289 10.6145 46.5261 10.7127 47.6029 11.0931C50.0818 11.9686 52.0314 13.9183 52.9069 16.3969C53.2871 17.4738 53.3853 18.7108 53.5213 20.4237C53.5285 20.5126 53.5354 20.6028 53.5429 20.6944C53.6093 21.5259 53.633 21.7849 53.6802 22.0238C53.7999 22.6316 54.0394 23.2095 54.3842 23.724C54.5199 23.9264 54.6863 24.1263 55.2274 24.7612C55.2869 24.8311 55.3455 24.8999 55.4034 24.9678C56.5186 26.2751 57.3239 27.2192 57.8165 28.2496C58.9501 30.6213 58.9501 33.3787 57.8165 35.7504C57.3239 36.7808 56.5186 37.7248 55.4034 39.0323C55.3455 39.1 55.2869 39.1688 55.2274 39.2389C54.6863 39.8736 54.5199 40.0736 54.3842 40.276C54.0394 40.7907 53.7999 41.3685 53.6802 41.9763C53.633 42.2152 53.6093 42.4741 53.5429 43.3056C53.5354 43.397 53.5285 43.4875 53.5213 43.5763C53.3853 45.2891 53.2871 46.5261 52.9069 47.6029C52.0314 50.0819 50.0818 52.0314 47.6029 52.9069C46.5261 53.2872 45.289 53.3853 43.5762 53.5213C43.4874 53.5285 43.397 53.5354 43.3055 53.5429C42.4741 53.6093 42.2151 53.6331 41.9762 53.6803C41.3685 53.8 40.7906 54.0394 40.2759 54.3842C40.0735 54.52 39.8735 54.6864 39.2389 55.2275C39.1687 55.2869 39.0999 55.3456 39.0322 55.4035C37.7247 56.5187 36.7807 57.324 35.7503 57.8165C33.3786 58.9501 30.6213 58.9501 28.2495 57.8165C27.2191 57.324 26.275 56.5187 24.9677 55.4035C24.8998 55.3456 24.831 55.2869 24.7611 55.2275C24.1262 54.6864 23.9263 54.52 23.724 54.3842C23.2094 54.0394 22.6315 53.8 22.0238 53.6803C21.7848 53.6331 21.5258 53.6093 20.6943 53.5429C20.6028 53.5354 20.5126 53.5285 20.4237 53.5213C18.7108 53.3853 17.4737 53.2872 16.3969 52.9069C13.9182 52.0314 11.9685 50.0819 11.093 47.6029C10.7126 46.5261 10.6145 45.2891 10.4786 43.5763C10.4715 43.4875 10.4644 43.397 10.4571 43.3056C10.3907 42.4741 10.367 42.2152 10.3198 41.9763C10.1998 41.3685 9.96043 40.7907 9.61553 40.276C9.47993 40.0736 9.31358 39.8736 8.77254 39.2389C8.71299 39.1691 8.65427 39.1 8.59641 39.0323C7.48129 37.7251 6.67595 36.7808 6.18347 35.7504C5.04985 33.3787 5.04985 30.6213 6.18347 28.2496C6.67595 27.2192 7.48129 26.2751 8.59638 24.9677C8.65425 24.8999 8.71297 24.8311 8.77254 24.7612C9.31358 24.1263 9.47993 23.9264 9.61553 23.724C9.96043 23.2095 10.1998 22.6316 10.3198 22.0238C10.367 21.7849 10.3907 21.5259 10.4571 20.6944C10.4644 20.6028 10.4715 20.5127 10.4786 20.4237C10.6145 18.7108 10.7126 17.4738 11.093 16.3969C11.9685 13.9183 13.9182 11.9686 16.3969 11.0931C17.4737 10.7127 18.7108 10.6145 20.4237 10.4786C20.5126 10.4716 20.6028 10.4644 20.6943 10.4571C21.5258 10.3908 21.7848 10.367 22.0238 10.3199C22.6315 10.1999 23.2094 9.96049 23.724 9.61559C23.9263 9.47999 24.1262 9.31364 24.7611 8.7726C24.831 8.71303 24.8998 8.65433 24.9677 8.59644C26.275 7.48135 27.2191 6.67601 28.2495 6.18353ZM34.0194 9.80505C32.7423 9.19463 31.2575 9.19463 29.9805 9.80505C29.4869 10.041 28.9663 10.4627 27.3647 11.8276C27.3383 11.8501 27.3125 11.8722 27.2869 11.894C26.761 12.3421 26.3774 12.6692 25.9588 12.9499C25.0031 13.5904 23.9299 14.0349 22.8012 14.2577C22.3067 14.3554 21.8041 14.3954 21.1156 14.4502C21.082 14.4529 21.048 14.4556 21.0136 14.4583C18.9159 14.6257 18.2497 14.6956 17.7337 14.8778C16.399 15.3492 15.3492 16.3991 14.8778 17.7337C14.6955 18.2497 14.6257 18.9159 14.4582 21.0136C14.4555 21.0481 14.4528 21.0821 14.4501 21.1156C14.3953 21.8042 14.3553 22.3068 14.2577 22.8013C14.0349 23.9299 13.5903 25.0032 12.9498 25.9588C12.6692 26.3775 12.3421 26.7611 11.8939 27.2869C11.8721 27.3125 11.85 27.3384 11.8276 27.3648C10.4626 28.9664 10.041 29.4869 9.80499 29.9805C9.19456 31.2576 9.19456 32.7424 9.80499 34.0195C10.041 34.5131 10.4626 35.0336 11.8276 36.6352C11.85 36.6616 11.8721 36.6875 11.894 36.7131C12.3421 37.2389 12.6692 37.6224 12.9498 38.0411C13.5903 38.9968 14.0349 40.0701 14.2577 41.1987C14.3553 41.6931 14.3953 42.1957 14.4501 42.8843C14.4528 42.9179 14.4555 42.952 14.4582 42.9864C14.6257 45.084 14.6955 45.7501 14.8778 46.2661C15.3492 47.6008 16.399 48.6506 17.7337 49.1221C18.2497 49.3045 18.9159 49.3744 21.0136 49.5416L21.1156 49.5498C21.8041 49.6045 22.3067 49.6445 22.8012 49.7421C23.9299 49.965 25.0031 50.4096 25.9588 51.0501C26.3774 51.3307 26.761 51.6578 27.2869 52.1058L27.3647 52.1722C28.9663 53.5373 29.4869 53.9589 29.9805 54.1949C31.2575 54.8053 32.7423 54.8053 34.0194 54.1949C34.513 53.9589 35.0335 53.5373 36.6351 52.1722L36.7133 52.1058C37.2389 51.6578 37.6223 51.3307 38.041 51.0501C38.9967 50.4096 40.0701 49.965 41.1986 49.7421C41.693 49.6445 42.1957 49.6045 42.8842 49.5498L42.9863 49.5416C45.0839 49.3744 45.7501 49.3045 46.2661 49.1221C47.6007 48.6506 48.6506 47.6008 49.1221 46.2661C49.3045 45.7501 49.3743 45.084 49.5415 42.9864L49.5498 42.8843C49.6045 42.1957 49.6445 41.6931 49.7421 41.1987C49.965 40.0701 50.4095 38.9968 51.0501 38.0411C51.3306 37.6224 51.6578 37.2389 52.1058 36.7133L52.1722 36.6352C53.5373 35.0336 53.9589 34.5131 54.1949 34.0195C54.8053 32.7424 54.8053 31.2576 54.1949 29.9805C53.9589 29.4869 53.5373 28.9664 52.1722 27.3648L52.1058 27.2867C51.6578 26.7611 51.3306 26.3775 51.0501 25.9588C50.4095 25.0032 49.965 23.9299 49.7421 22.8013C49.6445 22.3068 49.6045 21.8042 49.5498 21.1156L49.5415 21.0136C49.3743 18.9159 49.3045 18.2497 49.1221 17.7337C48.6506 16.3991 47.6007 15.3492 46.2661 14.8778C45.7501 14.6956 45.0839 14.6257 42.9863 14.4583C42.9519 14.4556 42.9178 14.4529 42.8842 14.4502C42.1957 14.3954 41.693 14.3554 41.1986 14.2577C40.0701 14.0349 38.9967 13.5904 38.041 12.9499C37.6223 12.6692 37.2389 12.3421 36.713 11.894C36.6874 11.8722 36.6615 11.85 36.6351 11.8276C35.0335 10.4627 34.513 10.041 34.0194 9.80505ZM42.7847 23.891C43.5687 24.6748 43.5687 25.9455 42.7847 26.7293L29.4053 40.1091C28.6213 40.8928 27.3506 40.8928 26.5669 40.1091L21.215 34.7571C20.4312 33.9733 20.4312 32.7027 21.215 31.9189C21.9988 31.1352 23.2695 31.1352 24.0533 31.9189L27.9861 35.8515L39.9466 23.891C40.7303 23.1072 42.001 23.1072 42.7847 23.891Z" fill="url(#paint0_linear_2099_1047)"/>
<defs>
<linearGradient id="paint0_linear_2099_1047" x1="58.6666" y1="32" x2="5.33325" y2="32.0022" gradientUnits="userSpaceOnUse">
<stop stop-color="#FC1A70"/>
<stop offset="1" stop-color="#FFB901"/>
</linearGradient>
</defs>
</svg>
