<svg width="25" height="25" viewBox="0 0 25 25" fill="none" xmlns="http://www.w3.org/2000/svg">
<path fill-rule="evenodd" clip-rule="evenodd" d="M12.04 1.52328C11.215 1.60228 10.75 1.70028 10.12 1.92728C9.17157 2.27131 8.30858 2.81598 7.58995 3.52409C6.87132 4.23219 6.31398 5.08705 5.95599 6.03028C5.64599 6.84428 5.55299 7.38728 5.49999 8.72028C5.41599 10.8213 5.20599 11.8923 4.66299 13.0003C4.36599 13.6053 4.04999 14.0423 3.35999 14.8003C2.78599 15.4323 2.63099 15.6773 2.54399 16.0923C2.47546 16.4158 2.49025 16.7515 2.58698 17.0677C2.68371 17.384 2.8592 17.6704 3.09699 17.9003C3.38499 18.1843 3.73999 18.3833 4.09199 18.4563C4.39199 18.5183 20.608 18.5183 20.908 18.4563C21.277 18.3793 21.617 18.1903 21.903 17.9043C22.1405 17.6734 22.3157 17.3862 22.4124 17.0694C22.5091 16.7526 22.5241 16.4164 22.456 16.0923C22.369 15.6753 22.209 15.4213 21.654 14.8143C20.935 14.0293 20.665 13.6563 20.341 13.0003C19.79 11.8873 19.581 10.8213 19.501 8.72028C19.452 7.42628 19.375 6.95928 19.073 6.12028C18.216 3.73828 16.081 1.97328 13.602 1.59828C13.226 1.54128 12.313 1.49728 12.04 1.52328ZM13.052 3.54328C13.9684 3.64566 14.8388 3.99909 15.5672 4.56462C16.2956 5.13014 16.8537 5.88579 17.18 6.74828C17.389 7.29028 17.5 7.99128 17.5 8.76828C17.501 9.36328 17.568 10.2593 17.658 10.8813C17.984 13.1323 18.725 14.6693 20.214 16.1903L20.518 16.5003H12.529C8.13499 16.5003 4.53999 16.4873 4.53999 16.4713C4.53999 16.4553 4.66399 16.3153 4.81499 16.1613C6.15099 14.7943 6.86699 13.4183 7.23699 11.5043C7.38099 10.7623 7.45599 10.0033 7.49899 8.88028C7.54499 7.67728 7.59699 7.32828 7.81999 6.74828C8.21173 5.70848 8.9388 4.82888 9.88631 4.24846C10.8338 3.66804 11.9477 3.41991 13.052 3.54328ZM10.446 20.5653C10.198 20.6413 9.89799 20.9333 9.82899 21.1653C9.74499 21.4473 9.76698 21.7013 9.89798 21.9643C10.157 22.4823 10.695 22.9743 11.28 23.2293C11.753 23.4353 11.967 23.4793 12.5 23.4793C13.033 23.4793 13.247 23.4353 13.72 23.2293C14.14 23.0463 14.483 22.7863 14.812 22.4023C15.311 21.8183 15.357 21.2353 14.936 20.8133C14.575 20.4513 14.051 20.4053 13.648 20.7003C13.5393 20.7884 13.4425 20.8902 13.36 21.0033C13.193 21.2383 13.038 21.3633 12.818 21.4413C12.383 21.5943 11.923 21.4253 11.643 21.0103C11.432 20.6963 11.083 20.4963 10.76 20.5033C10.6533 20.5122 10.548 20.533 10.446 20.5653Z" fill="url(#paint0_linear_2275_896)"/>
<defs>
<linearGradient id="paint0_linear_2275_896" x1="22.4979" y1="12.4975" x2="2.50162" y2="12.4982" gradientUnits="userSpaceOnUse">
<stop stop-color="#FC1A70"/>
<stop offset="1" stop-color="#FFB901"/>
</linearGradient>
</defs>
</svg>
