<svg width="64" height="64" viewBox="0 0 64 64" fill="none" xmlns="http://www.w3.org/2000/svg">
<path fill-rule="evenodd" clip-rule="evenodd" d="M20.2625 11.9644C20.974 8.47141 24.0823 6 27.6434 6H36.3565C39.9176 6 43.0258 8.47141 43.7376 11.9644C43.9018 12.7708 44.6322 13.3623 45.392 13.3623H45.4357L45.4794 13.3642C49.2218 13.5278 52.0965 13.9871 54.4965 15.5615C56.0085 16.5535 57.309 17.8298 58.3226 19.319C59.5837 21.1719 60.1397 23.2985 60.4064 25.8705C60.6666 28.3835 60.6666 31.5333 60.6666 35.5229V35.7499C60.6666 39.7395 60.6666 42.8893 60.4064 45.4021C60.1397 47.9741 59.5837 50.1008 58.3226 51.9536C57.309 53.4429 56.0085 54.7192 54.4965 55.7112C52.6205 56.9419 50.4698 57.4845 47.8613 57.7451C45.3074 58 42.104 58 38.0357 58H25.9642C21.8959 58 18.6924 58 16.1385 57.7451C13.5301 57.4845 11.3795 56.9419 9.50358 55.7112C7.9915 54.7192 6.69078 53.4429 5.67729 51.9536C4.4163 50.1008 3.86014 47.9741 3.59363 45.4021C3.33326 42.8893 3.33329 39.7395 3.33331 35.7499V35.5229C3.33329 31.5333 3.33326 28.3835 3.59363 25.8705C3.86014 23.2985 4.4163 21.1719 5.67729 19.319C6.69078 17.8298 7.9915 16.5535 9.50358 15.5615C11.9035 13.9871 14.7781 13.5278 18.5206 13.3642L18.5643 13.3623H18.608C19.3677 13.3623 20.0982 12.7708 20.2625 11.9644ZM27.6434 10C25.9339 10 24.5041 11.1813 24.1819 12.7629C23.6602 15.3242 21.3893 17.3383 18.6569 17.3621C15.0606 17.5218 13.1343 17.9636 11.6977 18.9061C10.6216 19.6121 9.70003 20.5176 8.98414 21.5695C8.24774 22.6516 7.80521 24.0353 7.57233 26.2828C7.33582 28.5656 7.33331 31.5083 7.33331 35.6363C7.33331 39.7645 7.33582 42.7072 7.57233 44.9899C7.80521 47.2373 8.24774 48.6211 8.98414 49.7032C9.70003 50.7552 10.6216 51.6608 11.6977 52.3667C12.8111 53.0971 14.2358 53.5349 16.5361 53.7648C18.868 53.9976 21.8718 54 26.0741 54H37.9258C42.1282 54 45.132 53.9976 47.464 53.7648C49.7642 53.5349 51.1888 53.0971 52.3024 52.3667C53.3784 51.6608 54.3 50.7552 55.0157 49.7032C55.7522 48.6211 56.1946 47.2373 56.4277 44.9899C56.6642 42.7072 56.6666 39.7645 56.6666 35.6363C56.6666 31.5083 56.6642 28.5656 56.4277 26.2828C56.1946 24.0353 55.7522 22.6516 55.0157 21.5695C54.3 20.5176 53.3784 19.6121 52.3024 18.9061C50.8656 17.9636 48.9394 17.5218 45.3432 17.3621C42.6106 17.3383 40.3397 15.3242 39.8181 12.7629C39.4957 11.1813 38.0661 10 36.3565 10H27.6434ZM32 28.6667C28.6864 28.6667 26 31.3531 26 34.6667C26 37.9803 28.6864 40.6667 32 40.6667C35.3136 40.6667 38 37.9803 38 34.6667C38 31.3531 35.3136 28.6667 32 28.6667ZM22 34.6667C22 29.1437 26.4771 24.6667 32 24.6667C37.5229 24.6667 42 29.1437 42 34.6667C42 40.1896 37.5229 44.6667 32 44.6667C26.4771 44.6667 22 40.1896 22 34.6667ZM46 26.6667C46 25.5621 46.8954 24.6667 48 24.6667H50.6666C51.7712 24.6667 52.6666 25.5621 52.6666 26.6667C52.6666 27.7712 51.7712 28.6667 50.6666 28.6667H48C46.8954 28.6667 46 27.7712 46 26.6667Z" fill="#757575"/>
</svg>
