<svg width="140" height="140" viewBox="0 0 140 140" fill="none" xmlns="http://www.w3.org/2000/svg">
<path fill-rule="evenodd" clip-rule="evenodd" d="M91.0087 14.0011C89.7265 12.7192 88.1136 12.7756 87.2293 12.8929C86.3928 13.0038 85.3912 13.2889 84.4369 13.5605L83.7019 13.7694L83.1039 13.3923C82.296 12.8817 81.4274 12.3332 80.6551 11.9974C79.7836 11.6188 78.313 11.1879 76.7678 12C75.2523 12.7967 74.7529 14.2227 74.547 15.1302C74.3592 15.9559 74.2787 16.9886 74.2029 17.9705L74.1445 18.7143L74.1399 18.7762L73.4889 19.312C72.7113 19.9518 71.9045 20.6157 71.3323 21.2414C70.7256 21.9041 69.7911 23.1494 70.0285 24.8833C70.2741 26.6764 71.5726 27.6062 72.384 28.0561C73.119 28.4637 74.0856 28.8205 74.9874 29.153L75.6221 29.3875L75.8566 30.0226C76.1891 30.9239 76.5461 31.891 76.9539 32.6258C77.4036 33.4372 78.3334 34.7357 80.1266 34.9812C81.8603 35.2186 83.1057 34.2839 83.7684 33.6777C84.3943 33.1054 85.0581 32.2985 85.6974 31.5209L86.2335 30.8701L86.2954 30.8652L87.0391 30.8071C88.0214 30.7308 89.0539 30.6506 89.8794 30.4629C90.787 30.2566 92.2133 29.7578 93.0095 28.2421C93.8221 26.6969 93.391 25.2262 93.0124 24.3549C92.6764 23.5825 92.1281 22.7141 91.6177 21.9058L91.2403 21.3081L91.4491 20.5731C91.7209 19.6187 92.0062 18.6169 92.117 17.7807C92.2343 16.896 92.2909 15.2831 91.0087 14.0011ZM85.7616 19.2483L85.3066 19.3775L85.1864 19.4128C84.7466 19.5435 83.8302 19.8159 82.8753 19.6851C81.8976 19.5512 81.0885 19.026 80.7134 18.7828L80.6137 18.7183L80.0245 18.3466L79.9604 19.1683L79.9516 19.2939C79.9207 19.7564 79.8577 20.6895 79.4126 21.5372C78.9728 22.3737 78.2477 22.9577 77.8814 23.2531L77.7804 23.3346L77.2514 23.7706L77.7029 23.9376L77.8143 23.9775C78.2325 24.1255 79.1554 24.4524 79.8565 25.1535C80.5577 25.8546 80.8844 26.7774 81.0325 27.1953L81.0722 27.3067L81.239 27.7587L81.6754 27.2291L81.7564 27.1285C82.0522 26.7619 82.6361 26.0371 83.4726 25.5974C84.3202 25.1519 85.2535 25.0894 85.7161 25.0584L85.8415 25.0495L86.6634 24.9854L86.2913 24.3963L86.2271 24.2962C85.9839 23.9213 85.4589 23.1121 85.3247 22.1347C85.194 21.1794 85.4664 20.2629 85.5971 19.8232L85.6321 19.703L85.7616 19.2483Z" fill="url(#paint0_linear_2004_731)"/>
<path d="M60.8714 18.4925C62.132 16.431 61.4822 13.7381 59.4207 12.4779C57.3593 11.2176 54.6665 11.8671 53.4062 13.9287C50.3833 18.8733 51.1409 25.2452 55.239 29.3432L55.8099 29.9142C56.963 31.0672 57.3881 32.7611 56.9163 34.322C56.2172 36.6349 57.5254 39.0766 59.8384 39.7757C62.1513 40.4749 64.5931 39.1666 65.2919 36.8538C66.6972 32.2053 65.4308 27.1608 61.9973 23.727L61.4262 23.156C60.1866 21.9162 59.9574 19.9885 60.8714 18.4925Z" fill="url(#paint1_linear_2004_731)"/>
<path d="M44.8367 22.9867C43.6148 21.7648 41.6337 21.7648 40.4118 22.9867C39.1899 24.2087 39.1899 26.1897 40.4118 27.4116C41.6337 28.6335 43.6148 28.6335 44.8367 27.4116C46.0586 26.1897 46.0586 24.2087 44.8367 22.9867Z" fill="url(#paint2_linear_2004_731)"/>
<path d="M106.619 32.6894C107.093 30.3201 105.557 28.0153 103.187 27.5414C100.818 27.0675 98.5129 28.6041 98.0392 30.9734L97.1992 35.1731C96.659 37.8738 94.713 40.078 92.1003 40.949C86.5084 42.8129 82.344 47.5301 81.1884 53.3099L80.3484 57.5095C79.8748 59.8786 81.4113 62.1839 83.7802 62.6576C86.1497 63.1312 88.4544 61.5947 88.9287 59.2252L89.7687 55.0259C90.3083 52.3252 92.2543 50.1209 94.867 49.2499C100.459 47.386 104.623 42.6688 105.779 36.889L106.619 32.6894Z" fill="url(#paint3_linear_2004_731)"/>
<path fill-rule="evenodd" clip-rule="evenodd" d="M131.388 51.5786C132.88 54.8098 131.873 58.4781 129.148 61.2028C127.568 62.7831 125.451 63.4988 123.565 63.8342C121.636 64.1772 119.596 64.1842 117.81 64.0693C116.006 63.9544 114.352 63.7077 113.156 63.493C112.555 63.3845 112.062 63.2836 111.714 63.2077L111.444 63.1477L111.305 63.1156L111.19 63.0882L111.156 63.08L111.145 63.0777C111.145 63.0777 111.138 63.0759 111.839 60.245L111.138 63.0759C110.088 62.8157 109.268 61.9944 109.008 60.9444L109.004 60.9281L108.996 60.8942L108.968 60.7793C108.946 60.6819 108.914 60.5437 108.876 60.3698C108.801 60.0222 108.7 59.5292 108.592 58.9284C108.376 57.7322 108.13 56.0781 108.015 54.2741C107.9 52.4877 107.907 50.4485 108.25 48.5195C108.585 46.6337 109.301 44.5162 110.881 42.936C113.606 40.2111 117.275 39.2039 120.506 40.6964C122.956 41.8285 124.55 44.1197 125.151 46.933C127.964 47.5335 130.255 49.1276 131.388 51.5786ZM114.311 57.7733C115.35 57.9564 116.722 58.1547 118.183 58.2482C119.719 58.3468 121.247 58.3215 122.543 58.091C123.883 57.8528 124.648 57.453 125.023 57.0782C126.439 55.6621 126.331 54.5423 126.092 54.0247C125.832 53.4625 124.901 52.4916 122.511 52.498C121.734 52.5001 120.989 52.1926 120.44 51.6437C119.891 51.0948 119.584 50.3498 119.586 49.5735C119.593 47.183 118.621 46.2518 118.059 45.9921C117.542 45.753 116.422 45.6447 115.006 47.0608C114.631 47.4356 114.231 48.2013 113.993 49.5408C113.762 50.837 113.738 52.3651 113.836 53.9015C113.929 55.3618 114.127 56.7348 114.311 57.7733Z" fill="url(#paint4_linear_2004_731)"/>
<path d="M118.597 80.0888C120.32 78.5604 122.774 78.1731 124.883 79.0959L126.584 79.8391C128.798 80.8074 131.377 79.7971 132.345 77.5834C133.313 75.3696 132.303 72.7901 130.09 71.8218L128.389 71.0786C123.154 68.7896 117.066 69.7509 112.792 73.542C110.889 75.229 108.12 75.5096 105.918 74.2379L104.676 73.521C102.583 72.3129 99.9075 73.0299 98.6994 75.1223C97.4913 77.2147 98.2082 79.8904 100.301 81.0985L101.543 81.8154C107.007 84.9701 113.877 84.2748 118.597 80.0888Z" fill="url(#paint5_linear_2004_731)"/>
<path d="M111.173 89.3265C112.396 88.105 114.377 88.105 115.599 89.3265C116.821 90.5486 116.821 92.5296 115.599 93.7517C114.377 94.9738 112.396 94.9738 111.173 93.7517C109.952 92.5296 109.952 90.5486 111.173 89.3265Z" fill="url(#paint6_linear_2004_731)"/>
<path d="M75.3423 41.7485C74.1202 40.5266 72.1392 40.5266 70.9171 41.7485C69.6956 42.9704 69.6956 44.9514 70.9171 46.1733C72.1392 47.3952 74.1202 47.3952 75.3423 46.1733C76.5638 44.9514 76.5638 42.9704 75.3423 41.7485Z" fill="url(#paint7_linear_2004_731)"/>
<path d="M100.084 59.2485C101.306 58.0265 103.287 58.0265 104.509 59.2485C105.73 60.4706 105.73 62.4516 104.509 63.6731C103.287 64.8952 101.306 64.8952 100.084 63.6731C98.8621 62.4516 98.8621 60.4706 100.084 59.2485Z" fill="url(#paint8_linear_2004_731)"/>
<path fill-rule="evenodd" clip-rule="evenodd" d="M56.2272 40.1609C59.6475 42.6967 63.5827 46.632 68.3578 51.4077L88.5861 71.6356C93.3618 76.4114 97.297 80.3465 99.8327 83.7666C102.452 87.3004 104.299 91.2274 103.231 95.75C102.164 100.273 98.7559 102.959 94.8324 104.949C91.0349 106.874 85.7552 108.634 79.3484 110.769L49.0715 120.861C41.314 123.447 35.0187 125.546 30.1373 126.414C25.2116 127.29 20.2133 127.202 16.5026 123.491C12.7921 119.78 12.7037 114.782 13.5799 109.856C14.4483 104.975 16.5469 98.6795 19.1331 90.9212L29.225 60.6456C31.3605 54.2384 33.1202 48.9589 35.0453 45.1613C37.0343 41.2376 39.7212 37.8301 44.2438 36.7624C48.7663 35.6948 52.6935 37.541 56.2272 40.1609ZM51.0159 47.1897C50.9139 47.1141 50.814 47.0413 50.7162 46.971C50.649 47.3342 50.5776 47.7246 50.5028 48.1402C50.007 50.8913 49.3574 54.7384 48.7432 59.1155C47.5028 67.9554 46.4538 78.6414 46.9908 86.8303C47.3159 91.788 48.3777 98.2012 49.3912 103.493C49.8932 106.113 50.3742 108.412 50.7297 110.056C50.8056 110.407 50.8757 110.728 50.9391 111.015L66.308 105.892C65.9043 104.693 65.4202 103.149 64.9366 101.352C63.7757 97.0363 62.5752 91.1008 62.5752 84.9053C62.5752 78.3993 63.7705 72.4651 64.9424 68.1945C65.531 66.0479 66.1219 64.2932 66.5717 63.0612C66.6761 62.7742 66.7735 62.5152 66.8616 62.2854L62.4294 57.8535C57.33 52.7542 53.8515 49.2921 51.0159 47.1897ZM37.4103 63.76C38.6292 60.1031 39.6432 57.0715 40.5668 54.5609C40.4037 55.6315 40.2398 56.7477 40.0781 57.8998C38.8231 66.8435 37.6608 78.271 38.2596 87.4025C38.6219 92.9284 39.7715 99.7826 40.7975 105.139C41.3152 107.842 41.8109 110.211 42.1774 111.905C42.3468 112.688 42.4889 113.329 42.593 113.793C36.5216 115.797 32.0488 117.186 28.6048 117.799C24.4003 118.547 23.2369 117.851 22.6898 117.304C22.1428 116.757 21.4467 115.593 22.1946 111.389C22.937 107.216 24.8192 101.533 27.5549 93.3257L37.4103 63.76ZM76.234 102.583L74.6088 103.125C74.2536 102.072 73.8202 100.693 73.3862 99.0791C73.0717 97.9113 72.7614 96.6349 72.4802 95.2816C71.8217 92.1088 71.3252 88.5138 71.3252 84.9053C71.3252 79.4208 72.3408 74.2985 73.3803 70.5098C73.5075 70.0454 73.6352 69.6033 73.7601 69.1844L82.1402 77.5646C87.2397 82.6635 90.7018 86.1425 92.8042 88.9781C94.868 91.7618 94.8954 92.9757 94.7152 93.7398C94.5349 94.5034 93.9673 95.5768 90.8762 97.1436C87.7274 98.7402 83.0753 100.303 76.234 102.583Z" fill="url(#paint9_linear_2004_731)"/>
<defs>
<linearGradient id="paint0_linear_2004_731" x1="93.4713" y1="23.2788" x2="69.9907" y2="23.2797" gradientUnits="userSpaceOnUse">
<stop stop-color="#FC1A70"/>
<stop offset="1" stop-color="#FFB901"/>
</linearGradient>
<linearGradient id="paint1_linear_2004_731" x1="65.8558" y1="25.8995" x2="51.5642" y2="25.8998" gradientUnits="userSpaceOnUse">
<stop stop-color="#FC1A70"/>
<stop offset="1" stop-color="#FFB901"/>
</linearGradient>
<linearGradient id="paint2_linear_2004_731" x1="45.7531" y1="25.1992" x2="39.4954" y2="25.1994" gradientUnits="userSpaceOnUse">
<stop stop-color="#FC1A70"/>
<stop offset="1" stop-color="#FFB901"/>
</linearGradient>
<linearGradient id="paint3_linear_2004_731" x1="106.705" y1="45.0994" x2="80.2627" y2="45.1002" gradientUnits="userSpaceOnUse">
<stop stop-color="#FC1A70"/>
<stop offset="1" stop-color="#FFB901"/>
</linearGradient>
<linearGradient id="paint4_linear_2004_731" x1="132.079" y1="52.0708" x2="107.948" y2="52.0718" gradientUnits="userSpaceOnUse">
<stop stop-color="#FC1A70"/>
<stop offset="1" stop-color="#FFB901"/>
</linearGradient>
<linearGradient id="paint5_linear_2004_731" x1="132.713" y1="76.8151" x2="98.1126" y2="76.8186" gradientUnits="userSpaceOnUse">
<stop stop-color="#FC1A70"/>
<stop offset="1" stop-color="#FFB901"/>
</linearGradient>
<linearGradient id="paint6_linear_2004_731" x1="116.515" y1="91.5393" x2="110.257" y2="91.5396" gradientUnits="userSpaceOnUse">
<stop stop-color="#FC1A70"/>
<stop offset="1" stop-color="#FFB901"/>
</linearGradient>
<linearGradient id="paint7_linear_2004_731" x1="76.2584" y1="43.9609" x2="70.001" y2="43.9612" gradientUnits="userSpaceOnUse">
<stop stop-color="#FC1A70"/>
<stop offset="1" stop-color="#FFB901"/>
</linearGradient>
<linearGradient id="paint8_linear_2004_731" x1="105.425" y1="61.4608" x2="99.1675" y2="61.4611" gradientUnits="userSpaceOnUse">
<stop stop-color="#FC1A70"/>
<stop offset="1" stop-color="#FFB901"/>
</linearGradient>
<linearGradient id="paint9_linear_2004_731" x1="103.539" y1="81.6631" x2="13.1221" y2="81.6668" gradientUnits="userSpaceOnUse">
<stop stop-color="#FC1A70"/>
<stop offset="1" stop-color="#FFB901"/>
</linearGradient>
</defs>
</svg>
