<svg width="64" height="65" viewBox="0 0 64 65" fill="none" xmlns="http://www.w3.org/2000/svg">
<path fill-rule="evenodd" clip-rule="evenodd" d="M26.5163 9.16675H37.4838C42.3846 9.1667 46.2662 9.16667 49.304 9.57512C52.4304 9.99544 54.9611 10.8811 56.9568 12.8767C58.9523 14.8724 59.8379 17.4029 60.2584 20.5294C60.4995 22.3237 60.5984 24.4123 60.6387 26.8315C60.6571 26.9405 60.6667 27.0525 60.6667 27.1667C60.6667 27.2609 60.6603 27.3531 60.6478 27.4438C60.6667 28.9523 60.6667 30.5849 60.6667 32.3497V32.6505C60.6667 37.5513 60.6667 41.4329 60.2584 44.4707C59.8379 47.5971 58.9523 50.1278 56.9568 52.1235C54.9611 54.119 52.4304 55.0046 49.304 55.4251C46.2662 55.8334 42.3846 55.8334 37.4838 55.8334H26.5163C21.6156 55.8334 17.7339 55.8334 14.696 55.4251C11.5695 55.0046 9.039 54.119 7.04335 52.1235C5.04772 50.1278 4.16207 47.5971 3.74175 44.4707C3.3333 41.4329 3.33332 37.5513 3.33338 32.6505V32.3497C3.33335 30.5849 3.33335 28.9523 3.35242 27.4438C3.33986 27.3531 3.33338 27.2606 3.33338 27.1667C3.33338 27.0525 3.34295 26.9405 3.36135 26.8315C3.40175 24.4124 3.5005 22.3237 3.74175 20.5294C4.16207 17.4029 5.04772 14.8724 7.04335 12.8767C9.039 10.8811 11.5695 9.99544 14.696 9.57512C17.7339 9.16667 21.6156 9.1667 26.5163 9.16675ZM7.33868 29.1667C7.33362 30.2025 7.33338 31.311 7.33338 32.5001C7.33338 37.5849 7.33762 41.1974 7.70607 43.9379C8.06676 46.6206 8.74322 48.1665 9.87178 49.295C11.0003 50.4235 12.5461 51.1001 15.229 51.4606C17.9694 51.8291 21.5819 51.8334 26.6667 51.8334H37.3334C42.4182 51.8334 46.0307 51.8291 48.7712 51.4606C51.4539 51.1001 52.9998 50.4235 54.1283 49.295C55.2568 48.1665 55.9334 46.6206 56.2939 43.9379C56.6624 41.1974 56.6667 37.5849 56.6667 32.5001C56.6667 31.311 56.6664 30.2025 56.6614 29.1667H7.33868ZM56.5971 25.1667H7.4029C7.45508 23.6021 7.54636 22.2503 7.70607 21.0623C8.06676 18.3794 8.74322 16.8337 9.87178 15.7051C11.0003 14.5766 12.5461 13.9001 15.229 13.5394C17.9694 13.171 21.5819 13.1667 26.6667 13.1667H37.3334C42.4182 13.1667 46.0307 13.171 48.7712 13.5394C51.4539 13.9001 52.9998 14.5766 54.1283 15.7051C55.2568 16.8337 55.9334 18.3794 56.2939 21.0623C56.4536 22.2503 56.5451 23.6021 56.5971 25.1667ZM14 43.1667C14 42.0622 14.8955 41.1667 16 41.1667H26.6667C27.7712 41.1667 28.6667 42.0622 28.6667 43.1667C28.6667 44.2713 27.7712 45.1667 26.6667 45.1667H16C14.8955 45.1667 14 44.2713 14 43.1667ZM31.3334 43.1667C31.3334 42.0622 32.2288 41.1667 33.3334 41.1667H37.3334C38.4379 41.1667 39.3334 42.0622 39.3334 43.1667C39.3334 44.2713 38.4379 45.1667 37.3334 45.1667H33.3334C32.2288 45.1667 31.3334 44.2713 31.3334 43.1667Z" fill="#FC1A70"/>
</svg>
