<svg width="32" height="32" viewBox="0 0 32 32" fill="none" xmlns="http://www.w3.org/2000/svg">
<g clip-path="url(#clip0_2123_4164)">
<path fill-rule="evenodd" clip-rule="evenodd" d="M14.7583 24.296L3.9903 13.2382C3.5167 12.7122 3.45109 11.9416 3.83029 11.346L7.41749 7.0312C7.71029 6.57304 8.22227 6.35933 8.77267 6.35933H23.2207C23.7599 6.35933 24.2623 6.56068 24.5583 7.0062L28.0943 11.0898C28.4895 11.6822 28.435 12.4449 27.963 12.9789L17.1583 24.2929C16.5247 25.0086 15.3983 25.007 14.7583 24.296ZM24.1599 3.19995H7.88786C6.78706 3.19995 5.76305 3.69296 5.17745 4.61401L0.489466 10.7046C-0.267334 11.8959 -0.136152 13.4197 0.811048 14.4703L13.5951 27.7445C14.8767 29.1632 17.1263 29.1493 18.3935 27.7179L31.2095 14.1406C32.1519 13.0758 32.2639 11.5208 31.4815 10.3359L26.8431 4.56948C26.2527 3.67371 25.2431 3.19995 24.1599 3.19995Z" fill="#006EFF"/>
</g>
<defs>
<clipPath id="clip0_2123_4164">
<rect width="32" height="32" fill="white"/>
</clipPath>
</defs>
</svg>
