<svg width="48" height="48" viewBox="0 0 48 48" fill="none" xmlns="http://www.w3.org/2000/svg">
<path fill-rule="evenodd" clip-rule="evenodd" d="M32 13.5C30.6192 13.5 29.5 14.6193 29.5 16C29.5 17.3807 30.6192 18.5 32 18.5C33.3808 18.5 34.5 17.3807 34.5 16C34.5 14.6193 33.3808 13.5 32 13.5ZM26.5 16C26.5 12.9624 28.9624 10.5 32 10.5C35.0376 10.5 37.5 12.9624 37.5 16C37.5 19.0376 35.0376 21.5 32 21.5C28.9624 21.5 26.5 19.0376 26.5 16Z" fill="#757575"/>
<path fill-rule="evenodd" clip-rule="evenodd" d="M23.8852 2.5H24.1148C28.7316 2.49998 32.3496 2.49996 35.1726 2.8795C38.062 3.26798 40.3422 4.07866 42.1318 5.86828C43.9214 7.6579 44.732 9.93794 45.1206 12.8274C45.5 15.6504 45.5 19.2685 45.5 23.8852V24.1148C45.5 28.7316 45.5 32.3496 45.1206 35.1726C44.732 38.062 43.9214 40.3422 42.1318 42.1318C40.3422 43.9214 38.062 44.732 35.1726 45.1206C32.3496 45.5 28.7316 45.5 24.1148 45.5H23.8852C19.2685 45.5 15.6504 45.5 12.8274 45.1206C9.93794 44.732 7.6579 43.9214 5.86828 42.1318C4.07866 40.3422 3.26798 38.062 2.8795 35.1726C2.49996 32.3496 2.49998 28.7316 2.5 24.1148V23.8852C2.49998 19.2685 2.49996 15.6504 2.8795 12.8274C3.26798 9.93794 4.07866 7.6579 5.86828 5.86828C7.6579 4.07866 9.93794 3.26798 12.8274 2.8795C15.6504 2.49996 19.2685 2.49998 23.8852 2.5ZM7.9896 40.0104C6.85028 38.871 6.1965 37.3296 5.85274 34.7728C5.54578 32.4898 5.50592 29.577 5.50076 25.6802L8.49092 23.0638C9.71916 21.9892 11.5703 22.0508 12.7243 23.2048L21.3038 31.7844C23.1936 33.6742 26.1686 33.9318 28.3552 32.395L28.9516 31.976C30.668 30.7698 32.9902 30.9094 34.5494 32.3128L40.9966 38.1152C41.0668 38.1784 41.1412 38.2336 41.219 38.2812C40.8956 38.963 40.4974 39.5234 40.0104 40.0104C38.871 41.1498 37.3296 41.8036 34.7728 42.1472C32.1728 42.4968 28.7564 42.5 24 42.5C19.2436 42.5 15.8271 42.4968 13.2272 42.1472C10.6703 41.8036 9.1289 41.1498 7.9896 40.0104ZM13.2272 5.85274C10.6703 6.1965 9.1289 6.85028 7.9896 7.9896C6.85028 9.1289 6.1965 10.6703 5.85274 13.2272C5.56248 15.3861 5.51104 18.1081 5.50196 21.693L6.51542 20.8062C8.93226 18.6914 12.5748 18.8127 14.8456 21.0836L23.425 29.663C24.2842 30.522 25.6364 30.6392 26.6304 29.9406L27.2268 29.5214C30.0874 27.511 33.9576 27.744 36.5564 30.083L42.1044 35.0762C42.1192 34.9766 42.1334 34.8756 42.1472 34.7728C42.4968 32.1728 42.5 28.7564 42.5 24C42.5 19.2436 42.4968 15.8271 42.1472 13.2272C41.8036 10.6703 41.1498 9.1289 40.0104 7.9896C38.871 6.85028 37.3296 6.1965 34.7728 5.85274C32.1728 5.50318 28.7564 5.5 24 5.5C19.2436 5.5 15.8271 5.50318 13.2272 5.85274Z" fill="#757575"/>
</svg>
