<svg width="17" height="16" viewBox="0 0 17 16" fill="none" xmlns="http://www.w3.org/2000/svg">
<path fill-rule="evenodd" clip-rule="evenodd" d="M15.86 8.17426C15.86 7.63062 15.8112 7.1079 15.7206 6.60608H8.5V9.57168H12.6261C12.4483 10.53 11.9082 11.342 11.0962 11.8856V13.8093H13.5739C15.0236 12.4746 15.86 10.5091 15.86 8.17426Z" fill="#4285F4"/>
<path fill-rule="evenodd" clip-rule="evenodd" d="M8.49996 15.6666C10.57 15.6666 12.3054 14.9801 13.5739 13.8092L11.0962 11.8855C10.4097 12.3455 9.53147 12.6174 8.49996 12.6174C6.50314 12.6174 4.81299 11.2687 4.21011 9.4566H1.64874V11.443C2.91026 13.9486 5.50299 15.6666 8.49996 15.6666Z" fill="#34A853"/>
<path fill-rule="evenodd" clip-rule="evenodd" d="M4.21016 9.45676C4.05683 8.99676 3.96971 8.5054 3.96971 8.0001C3.96971 7.4948 4.05683 7.00343 4.21016 6.54343V4.55707H1.6488C1.12956 5.59207 0.833344 6.76298 0.833344 8.0001C0.833344 9.23722 1.12956 10.4081 1.6488 11.4431L4.21016 9.45676Z" fill="#FBBC05"/>
<path fill-rule="evenodd" clip-rule="evenodd" d="M8.49996 3.38262C9.62556 3.38262 10.6362 3.76943 11.4307 4.52913L13.6297 2.33019C12.3019 1.09307 10.5665 0.333374 8.49996 0.333374C5.50299 0.333374 2.91026 2.0514 1.64874 4.55701L4.21011 6.54337C4.81299 4.73125 6.50314 3.38262 8.49996 3.38262Z" fill="#EA4335"/>
</svg>
