<svg width="24" height="25" viewBox="0 0 24 25" fill="none" xmlns="http://www.w3.org/2000/svg">
<path fill-rule="evenodd" clip-rule="evenodd" d="M11.49 1.54388C11.1423 1.60557 10.8084 1.72884 10.504 1.90788C10.332 2.00888 8.85301 3.24888 6.60401 5.17688C4.61101 6.88588 2.91001 8.35488 2.82401 8.44188C2.57747 8.71494 2.37595 9.02549 2.22701 9.36188C1.99101 9.92488 1.99601 9.77988 2.00901 15.1599L2.02001 20.0799L2.11401 20.3599C2.44601 21.3509 3.18401 22.0819 4.16001 22.3859L4.46001 22.4799H19.54L19.84 22.3859C20.816 22.0819 21.554 21.3509 21.886 20.3599L21.98 20.0799L21.991 15.1599C22.004 9.79288 22.01 9.95288 21.776 9.37788C21.6291 9.03488 21.4263 8.71859 21.176 8.44188C20.848 8.10788 13.721 2.03288 13.509 1.90688C12.946 1.57088 12.169 1.43088 11.49 1.54388ZM12.425 3.59188C12.492 3.62688 14.178 5.05288 16.172 6.76188C19.266 9.41288 19.81 9.89488 19.888 10.0539L19.98 10.2399L19.992 14.8799C20.001 18.1439 19.992 19.5809 19.961 19.7239C19.905 19.9839 19.724 20.2309 19.486 20.3709L19.3 20.4799L17.65 20.4919L16 20.5029L15.999 16.8919C15.999 12.9819 16 13.0149 15.781 12.5829C15.646 12.3159 15.297 11.9489 15.017 11.7809C14.564 11.5079 14.524 11.5049 12 11.5049C9.47601 11.5049 9.43601 11.5079 8.98301 11.7809C8.70301 11.9489 8.35401 12.3159 8.21901 12.5829C7.99501 13.0229 8.00001 12.9339 8.00001 16.8699V20.5029L6.35001 20.4919L4.70001 20.4799L4.51601 20.3719C4.40546 20.3049 4.30678 20.2201 4.22401 20.1209C3.98701 19.8119 3.99801 20.0609 4.00901 14.9389L4.02001 10.2399L4.11101 10.0539C4.18901 9.89588 4.73301 9.41388 7.78901 6.79388C9.76101 5.10288 11.41 3.69388 11.454 3.66288C11.691 3.49388 12.167 3.45888 12.425 3.59188ZM14 16.9999V20.4999H10V13.4999H14V16.9999Z" fill="url(#paint0_linear_2275_511)"/>
<defs>
<linearGradient id="paint0_linear_2275_511" x1="21.9961" y1="11.9926" x2="2.00403" y2="11.9934" gradientUnits="userSpaceOnUse">
<stop stop-color="#FC1A70"/>
<stop offset="1" stop-color="#FFB901"/>
</linearGradient>
</defs>
</svg>
