<svg width="25" height="25" viewBox="0 0 25 25" fill="none" xmlns="http://www.w3.org/2000/svg">
<path fill-rule="evenodd" clip-rule="evenodd" d="M12.26 8.02393C7.277 9.40893 3.119 10.5839 3.02 10.6339C2.814 10.7379 2.602 10.9939 2.542 11.2109C2.486 11.4119 2.486 14.5879 2.542 14.7889C2.602 15.0059 2.814 15.2619 3.02 15.3679C3.155 15.4369 5.053 15.8999 5.201 15.8999C5.214 15.8999 5.212 16.0489 5.197 16.2319C5.109 17.3169 5.556 18.5039 6.356 19.3129C6.872 19.8329 7.505 20.1939 8.24 20.3859C8.757 20.5209 9.684 20.5219 10.18 20.3869C11.067 20.1469 11.896 19.5899 12.417 18.8839C12.63 18.5949 12.874 18.1409 12.962 17.8699C12.999 17.7549 13.045 17.6599 13.065 17.6599C13.084 17.6599 14.968 18.0759 17.25 18.5829C20.715 19.3539 21.435 19.5029 21.612 19.4859C21.798 19.4653 21.9745 19.3929 22.1214 19.2769C22.2683 19.161 22.3798 19.0061 22.443 18.8299C22.487 18.7069 22.497 17.5609 22.498 12.5169C22.5 5.59993 22.523 6.12093 22.204 5.80193C22.0029 5.61468 21.7397 5.50821 21.465 5.50293C21.385 5.50493 17.243 6.63893 12.26 8.02393ZM20.5 12.5429C20.5 17.0219 20.496 17.2639 20.43 17.2439C20.392 17.2319 16.832 16.4399 12.52 15.4819C8.208 14.5249 4.64 13.7319 4.59 13.7199C4.501 13.6989 4.5 13.6919 4.5 12.9809V12.2629L4.65 12.2189C4.969 12.1249 20.442 7.82593 20.47 7.82293C20.487 7.82093 20.5 9.94493 20.5 12.5429ZM9.16 16.7839C10.172 17.0069 11.015 17.2039 11.034 17.2209C11.097 17.2789 10.812 17.7389 10.581 17.9519C10.3983 18.1298 10.1822 18.2697 9.94519 18.3638C9.70819 18.4578 9.45494 18.5041 9.2 18.4999C8.93953 18.5064 8.68056 18.4586 8.43955 18.3596C8.19853 18.2606 7.98074 18.1126 7.8 17.9249C7.42 17.5399 7.183 16.9899 7.181 16.4869C7.18 16.3599 7.192 16.3379 7.25 16.3559C7.288 16.3679 8.148 16.5599 9.16 16.7839Z" fill="url(#paint0_linear_2960_2370)"/>
<defs>
<linearGradient id="paint0_linear_2960_2370" x1="22.4991" y1="12.9953" x2="2.5" y2="12.9964" gradientUnits="userSpaceOnUse">
<stop stop-color="#FC1A70"/>
<stop offset="1" stop-color="#FFB901"/>
</linearGradient>
</defs>
</svg>
