<svg width="64" height="65" viewBox="0 0 64 65" fill="none" xmlns="http://www.w3.org/2000/svg">
<path d="M47.668 47.3401C46.5876 47.3425 45.5174 47.1309 44.5192 46.7176C43.521 46.3043 42.6145 45.6975 41.852 44.9321L33.452 36.5321C33.1546 36.2496 32.7601 36.0921 32.35 36.0921C31.9398 36.0921 31.5454 36.2496 31.248 36.5321L22.816 44.9641C22.0538 45.7298 21.1473 46.3369 20.149 46.7502C19.1507 47.1635 18.0804 47.3749 17 47.3721H15.344L25.984 58.0121C29.304 61.3321 34.692 61.3321 38.012 58.0121L48.68 47.3401H47.668ZM17 17.6281C19.2 17.6281 21.264 18.4841 22.816 20.0361L31.248 28.4681C31.3929 28.6132 31.565 28.7283 31.7544 28.8069C31.9438 28.8855 32.1469 28.9259 32.352 28.9259C32.5571 28.9259 32.7601 28.8855 32.9496 28.8069C33.139 28.7283 33.3111 28.6132 33.456 28.4681L41.856 20.0681C42.6178 19.3028 43.5236 18.696 44.5211 18.2827C45.5187 17.8694 46.5882 17.6578 47.668 17.6601H48.68L38.012 6.99207C36.4166 5.39777 34.2534 4.5022 31.998 4.5022C29.7425 4.5022 27.5794 5.39777 25.984 6.99207L15.344 17.6321L17 17.6281Z" fill="#00FF6E"/>
<path d="M57.5079 26.4841L51.06 20.0361C50.9152 20.0955 50.7604 20.1267 50.604 20.1281H47.672C46.156 20.1281 44.672 20.7441 43.604 21.8161L35.2039 30.2161C34.8304 30.5916 34.3863 30.8896 33.8972 31.0929C33.4081 31.2963 32.8836 31.4009 32.354 31.4009C31.8243 31.4009 31.2998 31.2963 30.8107 31.0929C30.3216 30.8896 29.8775 30.5916 29.504 30.2161L21.072 21.7801C19.9901 20.7027 18.5267 20.096 17 20.0921H13.4C13.2507 20.0909 13.1029 20.0624 12.964 20.0081L6.49195 26.4841C3.17195 29.8041 3.17195 35.1921 6.49195 38.5161L12.964 44.9881C13.1014 44.9327 13.2478 44.9029 13.396 44.9001H17C18.52 44.9001 20 44.2881 21.072 43.2161L29.5 34.7801C30.269 34.0479 31.2901 33.6395 32.352 33.6395C33.4138 33.6395 34.4349 34.0479 35.2039 34.7801L43.604 43.1801C44.672 44.2521 46.156 44.8641 47.672 44.8641H50.604C50.764 44.8641 50.92 44.9041 51.06 44.9601L57.5079 38.5121C60.8279 35.1921 60.8279 29.8041 57.5079 26.4841Z" fill="#00FF6E"/>
</svg>
