<svg width="25" height="25" viewBox="0 0 25 25" fill="none" xmlns="http://www.w3.org/2000/svg">
<path fill-rule="evenodd" clip-rule="evenodd" d="M10.5901 2.52392C9.27605 2.65992 8.34105 2.91492 7.31005 3.41792C5.51469 4.28364 4.06306 5.72858 3.18905 7.51992C2.57196 8.75591 2.25073 10.1185 2.25073 11.4999C2.25073 12.8814 2.57196 14.2439 3.18905 15.4799C3.6101 16.3564 4.1791 17.1538 4.87105 17.8369C6.19177 19.1716 7.8981 20.058 9.74944 20.3713C11.6008 20.6845 13.5038 20.4088 15.1901 19.5829C15.7159 19.3256 16.2173 19.021 16.6881 18.6729L16.8661 18.5369L18.7681 20.4339C19.8141 21.4779 20.7311 22.3619 20.8051 22.3989C21.2601 22.6279 21.8511 22.4439 22.1171 21.9919C22.2141 21.8269 22.2301 21.7579 22.2291 21.4999C22.2291 21.2879 22.2071 21.1589 22.1551 21.0599C22.1151 20.9829 21.2281 20.0639 20.1841 19.0179L18.2871 17.1159L18.4231 16.9379C18.7291 16.5369 19.0741 15.9679 19.3331 15.4399C19.9345 14.2136 20.2473 12.8659 20.2475 11.5C20.2476 10.1342 19.9352 8.78639 19.3341 7.55992C18.6942 6.24611 17.7439 5.10797 16.5653 4.24393C15.3868 3.37988 14.0155 2.81596 12.5701 2.60092C12.1611 2.53892 10.9121 2.49092 10.5901 2.52392ZM12.3521 4.59792C15.3491 5.05092 17.7411 7.48492 18.1741 10.5199C18.2401 10.9829 18.2401 12.0169 18.1741 12.4799C17.7371 15.5469 15.3761 17.9239 12.2701 18.4259C11.8571 18.4919 10.6431 18.4919 10.2301 18.4259C7.12305 17.9239 4.76305 15.5469 4.32605 12.4799C4.21705 11.7169 4.27205 10.5929 4.45505 9.83992C4.76333 8.59807 5.40433 7.46375 6.30911 6.55898C7.21388 5.6542 8.3482 5.0132 9.59005 4.70492C9.87405 4.63492 10.3141 4.56892 10.7901 4.52292C11.0631 4.49692 11.9761 4.54092 12.3521 4.59792Z" fill="url(#paint0_linear_2052_1093)"/>
<defs>
<linearGradient id="paint0_linear_2052_1093" x1="22.2291" y1="12.5053" x2="2.25073" y2="12.5062" gradientUnits="userSpaceOnUse">
<stop stop-color="#FC1A70"/>
<stop offset="1" stop-color="#FFB901"/>
</linearGradient>
</defs>
</svg>
