<svg width="25" height="25" viewBox="0 0 25 25" fill="none" xmlns="http://www.w3.org/2000/svg">
<path fill-rule="evenodd" clip-rule="evenodd" d="M10.59 2.52441C9.27599 2.66041 8.34099 2.91541 7.30999 3.41841C5.51463 4.28413 4.063 5.72907 3.18899 7.52041C2.5719 8.75639 2.25067 10.1189 2.25067 11.5004C2.25067 12.8819 2.5719 14.2444 3.18899 15.4804C3.61004 16.3569 4.17904 17.1542 4.87099 17.8374C6.19171 19.1721 7.89804 20.0585 9.74938 20.3718C11.6007 20.685 13.5037 20.4093 15.19 19.5834C15.7159 19.3261 16.2173 19.0215 16.688 18.6734L16.866 18.5374L18.768 20.4344C19.814 21.4784 20.731 22.3624 20.805 22.3994C21.26 22.6284 21.851 22.4444 22.117 21.9924C22.214 21.8274 22.23 21.7584 22.229 21.5004C22.229 21.2884 22.207 21.1594 22.155 21.0604C22.115 20.9834 21.228 20.0644 20.184 19.0184L18.287 17.1164L18.423 16.9384C18.729 16.5374 19.074 15.9684 19.333 15.4404C19.9344 14.2141 20.2472 12.8664 20.2474 11.5005C20.2476 10.1347 19.9351 8.78688 19.334 7.56041C18.6941 6.2466 17.7438 5.10846 16.5653 4.24441C15.3867 3.38037 14.0154 2.81644 12.57 2.60141C12.161 2.53941 10.912 2.49141 10.59 2.52441ZM12.352 4.59841C15.349 5.05141 17.741 7.48541 18.174 10.5204C18.24 10.9834 18.24 12.0174 18.174 12.4804C17.737 15.5474 15.376 17.9244 12.27 18.4264C11.857 18.4924 10.643 18.4924 10.23 18.4264C7.12299 17.9244 4.76299 15.5474 4.32599 12.4804C4.21699 11.7174 4.27199 10.5934 4.45499 9.84041C4.76327 8.59856 5.40427 7.46424 6.30905 6.55947C7.21382 5.65469 8.34814 5.01369 9.58999 4.70541C9.87399 4.63541 10.314 4.56941 10.79 4.52341C11.063 4.49741 11.976 4.54141 12.352 4.59841Z" fill="url(#paint0_linear_2275_1108)"/>
<defs>
<linearGradient id="paint0_linear_2275_1108" x1="22.229" y1="12.5058" x2="2.25067" y2="12.5066" gradientUnits="userSpaceOnUse">
<stop stop-color="#FC1A70"/>
<stop offset="1" stop-color="#FFB901"/>
</linearGradient>
</defs>
</svg>
