<svg width="64" height="64" viewBox="0 0 64 64" fill="none" xmlns="http://www.w3.org/2000/svg">
<path fill-rule="evenodd" clip-rule="evenodd" d="M19.7864 2.73068L18.9864 2.89335C18.2984 3.02935 17.0851 3.56801 16.3544 4.05868C16.0718 4.24801 12.9731 7.26135 9.47176 10.7547C4.19443 16.016 3.06376 17.1973 2.8771 17.6293C2.65843 18.1387 2.6531 18.2613 2.69043 23.1813C2.72776 28.104 2.7331 28.2293 2.9731 28.96C3.6771 31.0907 5.17043 32.8533 7.0931 33.824L7.94643 34.2533L7.99976 44.568L8.0531 54.88L8.30376 55.6267C9.1891 58.2667 11.1571 60.2187 13.7598 61.0293L14.5598 61.28H49.4398L50.2398 61.0293C52.8424 60.2187 54.8104 58.2667 55.6958 55.6267L55.9464 54.88L55.9998 44.568L56.0531 34.2533L56.9064 33.824C58.867 32.8088 60.3476 31.0608 61.0264 28.96C61.2664 28.2293 61.2718 28.104 61.3091 23.1813C61.3464 18.2613 61.3411 18.1387 61.1224 17.6293C60.9358 17.1973 59.8051 16.016 54.5278 10.7547C51.0264 7.26135 47.9438 4.25868 47.6798 4.08268C46.9687 3.6114 46.1973 3.23826 45.3864 2.97335L44.6398 2.72001L32.3198 2.70401C25.5438 2.69601 19.9038 2.70668 19.7864 2.73068ZM44.3198 8.28535C44.5544 8.41335 46.4264 10.2027 48.4798 12.2587L52.2131 16H11.7864L15.5198 12.2587C19.0638 8.70668 19.5278 8.29335 20.1598 8.09868C20.3064 8.05335 25.7064 8.02401 32.1598 8.03468L43.8931 8.05335L44.3198 8.28535ZM55.9998 24.144C55.9998 27.208 55.9411 27.616 55.4104 28.3147C55.2478 28.528 54.8931 28.8347 54.6238 28.992C54.2131 29.232 54.0104 29.28 53.3864 29.2747C52.5251 29.2693 51.9171 29.0293 50.7331 28.2347C49.7304 27.56 49.1091 27.3627 47.9998 27.3627C46.8904 27.3627 46.2691 27.56 45.2664 28.2347C43.1811 29.6373 42.1518 29.6373 40.0664 28.2347C39.0638 27.56 38.4424 27.3627 37.3331 27.3627C36.2238 27.3627 35.6024 27.56 34.5998 28.2347C32.5144 29.6373 31.4851 29.6373 29.3998 28.2347C28.3971 27.56 27.7758 27.3627 26.6664 27.3627C25.5571 27.3627 24.9358 27.56 23.9331 28.2347C21.8478 29.6373 20.8184 29.6373 18.7331 28.2347C17.7304 27.56 17.1091 27.3627 15.9998 27.3627C14.8904 27.3627 14.2691 27.56 13.2664 28.2347C12.0824 29.0293 11.4744 29.2693 10.6131 29.2747C9.9891 29.28 9.78643 29.232 9.37576 28.992C9.08319 28.8137 8.82118 28.5895 8.59976 28.328C8.04243 27.5973 7.99976 27.3093 7.99976 24.2V21.3333H55.9998V24.144ZM16.6558 33.264C18.0555 34.1463 19.6785 34.6099 21.3331 34.6C23.0184 34.6 24.4984 34.1787 25.9998 33.2693L26.6664 32.8667L27.3331 33.2693C28.73 34.1486 30.3492 34.6103 31.9998 34.6C33.6851 34.6 35.1651 34.1787 36.6664 33.2693L37.3331 32.8667L37.9998 33.2693C39.3967 34.1486 41.0158 34.6103 42.6664 34.6C44.3518 34.6 45.8318 34.1787 47.3331 33.2693L47.9998 32.8667L48.6664 33.272C49.0318 33.4933 49.6318 33.7893 49.9971 33.9307L50.6638 34.1867V43.904C50.6664 54.448 50.6798 54.1893 50.0771 54.9813C49.9144 55.1947 49.5598 55.5013 49.2904 55.6587L48.7998 55.9467L45.7411 55.9787L42.6798 56.0107L42.6424 51.232C42.6051 46.5787 42.5971 46.4347 42.3571 45.7067C41.4878 43.0693 39.4158 41.032 36.8584 40.2987C36.0318 40.0613 35.8558 40.0533 31.9998 40.0533C28.1438 40.0533 27.9678 40.0613 27.1411 40.2987C24.5838 41.032 22.5118 43.0693 21.6424 45.7067C21.4024 46.4347 21.3944 46.5787 21.3571 51.232L21.3198 56.0107L18.2584 55.9787L15.1998 55.9467L14.7091 55.6587C14.4165 55.4804 14.1545 55.2562 13.9331 54.9947C13.3118 54.1787 13.3331 54.5947 13.3331 43.96L13.3358 34.1867L13.9998 33.9333C14.5358 33.7307 15.0638 33.4427 15.9624 32.864C15.9704 32.8587 16.2824 33.0373 16.6558 33.264ZM35.4931 45.496C35.8872 45.6181 36.2428 45.8405 36.5251 46.1413C37.3144 46.9307 37.3331 47.0667 37.3331 51.8587V56H26.6664V51.8587C26.6664 47.064 26.6851 46.9307 27.4771 46.1413C28.2238 45.392 28.4664 45.3493 31.9544 45.3413C34.3411 45.336 35.0584 45.3653 35.4931 45.496Z" fill="#757575"/>
</svg>
