<svg width="32" height="32" viewBox="0 0 32 32" fill="none" xmlns="http://www.w3.org/2000/svg">
<path fill-rule="evenodd" clip-rule="evenodd" d="M15.0199 26.5189L5.44739 16.9509C4.88404 16.3875 4.88404 15.4745 5.44739 14.9111L15.017 5.34094C15.5804 4.77759 16.4933 4.77759 17.0566 5.34094L26.6292 14.9097C27.1925 15.4716 27.1925 16.3861 26.6292 16.948L17.0595 26.5189C16.4962 27.0822 15.5833 27.0822 15.0199 26.5189ZM29.6539 13.9588L18.0418 2.34678C17.4784 1.78197 16.7388 1.5 16.0007 1.5C15.2612 1.5 14.5216 1.78197 13.9582 2.34678L2.3461 13.9588C1.21797 15.0855 1.21797 16.9144 2.3461 18.0426L13.9582 29.6553C14.5216 30.2187 15.2612 30.5 16.0007 30.5C16.7388 30.5 17.4784 30.2187 18.0418 29.6553L29.6539 18.0426C30.782 16.9144 30.782 15.0855 29.6539 13.9588Z" fill="#BFBFBF"/>
</svg>
