<svg width="25" height="25" viewBox="0 0 25 25" fill="none" xmlns="http://www.w3.org/2000/svg">
<path fill-rule="evenodd" clip-rule="evenodd" d="M7.66955 1.52417L7.36954 1.58517C7.11155 1.63617 6.65655 1.83817 6.38254 2.02217C6.27655 2.09317 5.11455 3.22317 3.80155 4.53317C1.82255 6.50617 1.39855 6.94917 1.32855 7.11117C1.24655 7.30217 1.24454 7.34817 1.25854 9.19317C1.27254 11.0392 1.27455 11.0862 1.36455 11.3602C1.62855 12.1592 2.18855 12.8202 2.90955 13.1842L3.22955 13.3452L3.24955 17.2132L3.26955 21.0802L3.36355 21.3602C3.69555 22.3502 4.43354 23.0822 5.40954 23.3862L5.70955 23.4802H18.7895L19.0895 23.3862C20.0655 23.0822 20.8035 22.3502 21.1355 21.3602L21.2295 21.0802L21.2495 17.2132L21.2695 13.3452L21.5895 13.1842C22.3247 12.8035 22.88 12.148 23.1345 11.3602C23.2245 11.0862 23.2265 11.0392 23.2405 9.19317C23.2545 7.34817 23.2525 7.30217 23.1705 7.11117C23.1005 6.94917 22.6765 6.50617 20.6975 4.53317C19.3845 3.22317 18.2285 2.09717 18.1295 2.03117C17.8629 1.85444 17.5736 1.71451 17.2695 1.61517L16.9895 1.52017L12.3695 1.51417C9.82855 1.51117 7.71355 1.51517 7.66955 1.52417ZM16.8695 3.60717C16.9575 3.65517 17.6595 4.32617 18.4295 5.09717L19.8295 6.50017H4.66955L6.06955 5.09717C7.39855 3.76517 7.57255 3.61017 7.80955 3.53717C7.86454 3.52017 9.88955 3.50917 12.3095 3.51317L16.7095 3.52017L16.8695 3.60717ZM21.2495 9.55417C21.2495 10.7032 21.2275 10.8562 21.0285 11.1182C20.9675 11.1982 20.8345 11.3132 20.7335 11.3722C20.5795 11.4622 20.5035 11.4802 20.2695 11.4782C19.9465 11.4762 19.7185 11.3862 19.2745 11.0882C18.8985 10.8352 18.6655 10.7612 18.2495 10.7612C17.8335 10.7612 17.6005 10.8352 17.2245 11.0882C16.4425 11.6142 16.0565 11.6142 15.2745 11.0882C14.8985 10.8352 14.6655 10.7612 14.2495 10.7612C13.8335 10.7612 13.6005 10.8352 13.2245 11.0882C12.4425 11.6142 12.0565 11.6142 11.2745 11.0882C10.8985 10.8352 10.6655 10.7612 10.2495 10.7612C9.83354 10.7612 9.60055 10.8352 9.22455 11.0882C8.44255 11.6142 8.05655 11.6142 7.27455 11.0882C6.89855 10.8352 6.66554 10.7612 6.24955 10.7612C5.83355 10.7612 5.60054 10.8352 5.22455 11.0882C4.78054 11.3862 4.55255 11.4762 4.22955 11.4782C3.99555 11.4802 3.91955 11.4622 3.76555 11.3722C3.65583 11.3053 3.55758 11.2212 3.47455 11.1232C3.26554 10.8492 3.24955 10.7412 3.24955 9.57517V8.50017H21.2495V9.55417ZM6.49554 12.9742C7.02046 13.305 7.62906 13.4789 8.24955 13.4752C8.88155 13.4752 9.43655 13.3172 9.99955 12.9762L10.2495 12.8252L10.4995 12.9762C11.0234 13.3059 11.6306 13.479 12.2495 13.4752C12.8815 13.4752 13.4365 13.3172 13.9995 12.9762L14.2495 12.8252L14.4995 12.9762C15.0234 13.3059 15.6306 13.479 16.2495 13.4752C16.8815 13.4752 17.4365 13.3172 17.9995 12.9762L18.2495 12.8252L18.4995 12.9772C18.6365 13.0602 18.8615 13.1712 18.9985 13.2242L19.2485 13.3202V16.9642C19.2495 20.9182 19.2545 20.8212 19.0285 21.1182C18.9675 21.1982 18.8345 21.3132 18.7335 21.3722L18.5495 21.4802L17.4025 21.4922L16.2545 21.5042L16.2405 19.7122C16.2265 17.9672 16.2235 17.9132 16.1335 17.6402C15.8075 16.6512 15.0305 15.8872 14.0715 15.6122C13.7615 15.5232 13.6955 15.5202 12.2495 15.5202C10.8035 15.5202 10.7375 15.5232 10.4275 15.6122C9.46855 15.8872 8.69155 16.6512 8.36555 17.6402C8.27555 17.9132 8.27254 17.9672 8.25854 19.7122L8.24454 21.5042L7.09655 21.4922L5.94954 21.4802L5.76554 21.3722C5.65583 21.3053 5.55758 21.2212 5.47455 21.1232C5.24154 20.8172 5.24955 20.9732 5.24955 16.9852L5.25055 13.3202L5.49955 13.2252C5.70055 13.1492 5.89855 13.0412 6.23555 12.8242C6.23854 12.8222 6.35555 12.8892 6.49554 12.9742ZM13.5595 17.5612C13.7073 17.6069 13.8407 17.6903 13.9465 17.8032C14.2425 18.0992 14.2495 18.1502 14.2495 19.9472V21.5002H10.2495V19.9472C10.2495 18.1492 10.2565 18.0992 10.5535 17.8032C10.8335 17.5222 10.9245 17.5062 12.2325 17.5032C13.1275 17.5012 13.3965 17.5122 13.5595 17.5612Z" fill="url(#paint0_linear_2301_1618)"/>
<defs>
<linearGradient id="paint0_linear_2301_1618" x1="23.2471" y1="12.4967" x2="1.25195" y2="12.4976" gradientUnits="userSpaceOnUse">
<stop stop-color="#FC1A70"/>
<stop offset="1" stop-color="#FFB901"/>
</linearGradient>
</defs>
</svg>
