<svg width="25" height="25" viewBox="0 0 25 25" fill="none" xmlns="http://www.w3.org/2000/svg">
<path fill-rule="evenodd" clip-rule="evenodd" d="M9.87981 2.5428C7.28381 2.7988 5.18081 4.7148 4.61381 7.3398C4.48381 7.9458 4.48381 9.0538 4.61381 9.6598C4.88564 10.9768 5.58231 12.1681 6.59681 13.0508C6.72781 13.1648 6.82681 13.2658 6.81681 13.2738C6.80781 13.2818 6.61281 13.3838 6.38381 13.5008C5.03281 14.1908 3.84881 15.2558 2.96781 16.5728C2.62781 17.0808 2.16681 18.0408 1.96081 18.6688C1.65681 19.5958 1.46981 20.7558 1.50781 21.4798C1.52281 21.7628 1.54381 21.8448 1.64381 22.0078C1.7326 22.155 1.85782 22.2767 2.00739 22.3614C2.15695 22.4461 2.32582 22.4908 2.49768 22.4912C2.66955 22.4916 2.83862 22.4477 2.98858 22.3637C3.13854 22.2797 3.26433 22.1585 3.35381 22.0118C3.46081 21.8368 3.47281 21.7748 3.52281 21.1518C3.60081 20.1748 3.69581 19.7118 3.95581 19.0298C4.36054 17.9683 5.01612 17.0206 5.8666 16.2674C6.71708 15.5143 7.73718 14.9782 8.83981 14.7048C9.93281 14.4588 11.0668 14.4588 12.1598 14.7048C14.6718 15.3148 16.6898 17.3338 17.2938 19.8398C17.3968 20.2648 17.4158 20.4048 17.4788 21.1728C17.5278 21.7738 17.5408 21.8398 17.6468 22.0128C17.7362 22.1595 17.862 22.2807 18.0119 22.3646C18.1619 22.4485 18.3309 22.4923 18.5027 22.4918C18.6745 22.4913 18.8433 22.4465 18.9927 22.3617C19.1422 22.2769 19.2672 22.155 19.3558 22.0078C19.4558 21.8448 19.4768 21.7628 19.4918 21.4798C19.5498 20.3838 19.1748 18.7678 18.5838 17.5598C17.7168 15.7918 16.2898 14.3398 14.5748 13.4808L14.1418 13.2638L14.2508 13.1798C14.3108 13.1338 14.5108 12.9488 14.6948 12.7678C15.5658 11.9148 16.1198 10.8968 16.3848 9.6598C16.5148 9.0538 16.5148 7.9458 16.3848 7.3398C16.1258 6.1308 15.6088 5.1598 14.7688 4.3048C13.4778 2.9898 11.7298 2.3598 9.87981 2.5428ZM17.6388 3.2948C17.4528 3.3798 17.2448 3.5748 17.1538 3.7518C17.106 3.87158 17.0774 3.99812 17.0688 4.1268C17.0348 4.5608 17.1818 4.8138 17.6608 5.1388C19.4258 6.3358 19.9898 8.5108 19.0198 10.3758C18.7653 10.8374 18.4292 11.2491 18.0278 11.5908C17.6228 11.9328 17.5198 12.1208 17.5198 12.5198C17.5198 12.9058 17.6278 13.0788 18.1168 13.4758C19.0918 14.2688 19.8848 15.3028 20.5408 16.6398C21.1538 17.8878 21.4038 18.8458 21.4958 20.2908C21.5268 20.7758 21.5398 20.8378 21.6458 21.0108C21.7353 21.1583 21.8614 21.28 22.0119 21.3643C22.1624 21.4485 22.3321 21.4924 22.5046 21.4916C22.677 21.4908 22.8464 21.4454 22.9961 21.3597C23.1458 21.274 23.2707 21.1511 23.3588 21.0028L23.4798 20.8058L23.4768 20.2028C23.4658 17.7698 22.2898 14.9628 20.4168 12.9008L20.0218 12.4648L20.2978 12.0968C20.7988 11.4298 21.1948 10.5498 21.3878 9.6738C21.5038 9.1458 21.5138 7.9858 21.4068 7.4398C21.1794 6.2397 20.5993 5.13464 19.7408 4.2658C19.3933 3.91468 19.0009 3.61105 18.5738 3.3628C18.3498 3.2398 18.2768 3.2198 18.0568 3.2208C17.8948 3.2208 17.7398 3.2488 17.6388 3.2948ZM11.1048 4.5578C12.5738 4.7798 13.8098 5.8238 14.2968 7.2548C14.3968 7.5498 14.4998 8.1798 14.4998 8.4998C14.4998 8.8218 14.3968 9.4508 14.2958 9.7448C13.8208 11.1318 12.6948 12.1278 11.2728 12.4168C9.06281 12.8678 6.89581 11.3448 6.55781 9.1048C6.48581 8.70468 6.48581 8.29492 6.55781 7.8948C6.81381 6.1978 8.17481 4.8238 9.85781 4.5608C10.2704 4.48979 10.6919 4.48878 11.1048 4.5578Z" fill="url(#paint0_linear_2311_2024)"/>
<defs>
<linearGradient id="paint0_linear_2311_2024" x1="23.4798" y1="12.5018" x2="1.50293" y2="12.5027" gradientUnits="userSpaceOnUse">
<stop stop-color="#FC1A70"/>
<stop offset="1" stop-color="#FFB901"/>
</linearGradient>
</defs>
</svg>
