<svg width="25" height="25" viewBox="0 0 25 25" fill="none" xmlns="http://www.w3.org/2000/svg">
<path fill-rule="evenodd" clip-rule="evenodd" d="M11.9 2.54331C10.261 2.72831 8.761 3.78931 8.026 5.28431C7.658 6.03231 7.52 6.63531 7.52 7.49931C7.52 8.16931 7.578 8.54331 7.768 9.09931C8.346 10.7903 9.753 12.0243 11.54 12.4063C12.011 12.5073 12.989 12.5073 13.46 12.4063C14.988 12.0793 16.248 11.1293 16.933 9.78731C17.338 8.99331 17.48 8.39831 17.48 7.49931C17.48 6.60031 17.338 6.00531 16.933 5.21231C16.6093 4.58703 16.1578 4.03679 15.6077 3.59731C15.0577 3.15783 14.4213 2.83893 13.74 2.66131C13.1385 2.51317 12.5155 2.47322 11.9 2.54331ZM13.361 4.62831C14.304 4.90431 15.084 5.68231 15.375 6.63831C15.458 6.91131 15.473 7.04131 15.473 7.49931C15.473 7.95731 15.458 8.08731 15.375 8.36031C15.2263 8.838 14.9631 9.27215 14.6085 9.62506C14.2539 9.97796 13.8184 10.2389 13.34 10.3853C12.906 10.5203 12.094 10.5203 11.66 10.3853C11.1816 10.2389 10.7461 9.97796 10.3915 9.62506C10.0368 9.27215 9.77373 8.838 9.625 8.36031C9.542 8.08731 9.527 7.95731 9.527 7.49931C9.527 7.04131 9.542 6.91131 9.625 6.63831C9.78964 6.10409 10.0983 5.62556 10.5171 5.25528C10.9359 4.88499 11.4486 4.63727 11.999 4.53931C12.332 4.47931 13 4.52231 13.361 4.62831ZM8.9 14.5433C7.261 14.7283 5.761 15.7893 5.026 17.2843C4.83042 17.6832 4.68498 18.1047 4.593 18.5393C4.53 18.8333 4.52 19.0783 4.52 20.3423V21.8053L4.641 22.0023C4.72927 22.1516 4.85492 22.2752 5.00555 22.3612C5.15618 22.4471 5.32659 22.4923 5.5 22.4923C5.6734 22.4923 5.84382 22.4471 5.99445 22.3612C6.14508 22.2752 6.27072 22.1516 6.359 22.0023L6.48 21.8063L6.503 20.3823C6.525 19.0213 6.531 18.9453 6.624 18.6383C6.77425 18.1581 7.04013 17.7221 7.39826 17.3687C7.7564 17.0153 8.19585 16.7552 8.678 16.6113L9 16.5193H16L16.322 16.6113C16.8041 16.7552 17.2436 17.0153 17.6017 17.3687C17.9599 17.7221 18.2257 18.1581 18.376 18.6383C18.469 18.9453 18.475 19.0213 18.497 20.3823L18.52 21.8063L18.641 22.0023C18.7293 22.1516 18.8549 22.2752 19.0055 22.3612C19.1562 22.4471 19.3266 22.4923 19.5 22.4923C19.6734 22.4923 19.8438 22.4471 19.9944 22.3612C20.1451 22.2752 20.2707 22.1516 20.359 22.0023L20.48 21.8053V20.3423C20.48 19.0783 20.47 18.8333 20.407 18.5393C20.125 17.2203 19.363 16.0753 18.3 15.3733C17.546 14.8743 16.896 14.6343 16.052 14.5423C15.587 14.4913 9.353 14.4923 8.9 14.5433Z" fill="url(#paint0_linear_2275_921)"/>
<defs>
<linearGradient id="paint0_linear_2275_921" x1="20.48" y1="12.501" x2="4.52" y2="12.5015" gradientUnits="userSpaceOnUse">
<stop stop-color="#FC1A70"/>
<stop offset="1" stop-color="#FFB901"/>
</linearGradient>
</defs>
</svg>
