<svg width="64" height="64" viewBox="0 0 64 64" fill="none" xmlns="http://www.w3.org/2000/svg">
<path fill-rule="evenodd" clip-rule="evenodd" d="M55.796 31.3338C55.7419 31.3333 55.6709 31.3333 55.5555 31.3333H48.6155C44.8197 31.3333 42 34.1565 42 37.3333C42 40.5101 44.8197 43.3333 48.6155 43.3333H55.5555C55.6709 43.3333 55.7419 43.3333 55.796 43.3328C55.8472 43.3322 55.8613 43.3312 55.8613 43.3312C56.4107 43.2978 56.6472 42.9269 56.6653 42.7037C56.6653 42.7037 56.6659 42.6872 56.6661 42.6629C56.6667 42.6154 56.6667 42.5525 56.6667 42.4445V32.2221C56.6667 32.1624 56.6667 32.1165 56.6667 32.0792C56.6664 32.0493 56.6664 32.0248 56.6661 32.0037C56.6659 31.9797 56.6653 31.9629 56.6653 31.9629C56.6472 31.7397 56.4107 31.3688 55.8611 31.3354C55.8611 31.3354 55.848 31.3344 55.796 31.3338ZM55.5997 27.3333C55.7768 27.3333 55.9475 27.333 56.1043 27.3426C58.4277 27.4842 60.4827 29.2368 60.6555 31.6848C60.6669 31.8453 60.6667 32.0184 60.6667 32.1786C60.6667 32.1933 60.6667 32.2077 60.6667 32.2221V42.4445C60.6667 42.4589 60.6667 42.4733 60.6667 42.488C60.6667 42.6482 60.6669 42.8213 60.6555 42.9818C60.4827 45.4298 58.4277 47.1824 56.1043 47.324C55.9475 47.3336 55.7768 47.3333 55.5997 47.3333C55.5851 47.3333 55.5704 47.3333 55.5555 47.3333H48.6155C42.8949 47.3333 38 42.993 38 37.3333C38 31.6736 42.8949 27.3333 48.6155 27.3333H55.5555C55.5704 27.3333 55.5851 27.3333 55.5997 27.3333Z" fill="url(#paint0_linear_2099_1013)"/>
<path d="M50.6666 37.3334C50.6666 38.8062 49.4728 40 48 40C46.5272 40 45.3333 38.8062 45.3333 37.3334C45.3333 35.8606 46.5272 34.6667 48 34.6667C49.4728 34.6667 50.6666 35.8606 50.6666 37.3334Z" fill="url(#paint1_linear_2099_1013)"/>
<path fill-rule="evenodd" clip-rule="evenodd" d="M55.5997 27.3333C55.7768 27.3333 55.9474 27.3331 56.1042 27.3427C56.7053 27.3792 57.2885 27.5237 57.8258 27.7603C57.5405 23.4763 56.7549 20.175 54.2901 17.71C52.2944 15.7143 49.7637 14.8287 46.6373 14.4083L46.5245 14.3934C46.4965 14.3727 46.468 14.3526 46.4386 14.3331L36.4773 7.72816C33.0021 5.42395 28.3312 5.42395 24.856 7.72816L14.8948 14.3331C14.8654 14.3526 14.8367 14.3727 14.8087 14.3934L14.6959 14.4083C11.5695 14.8287 9.03894 15.7143 7.04329 17.71C5.04766 19.7056 4.16201 22.2362 3.74169 25.3626C3.33323 28.4005 3.33326 32.2821 3.33331 37.1829V37.4837C3.33326 42.3845 3.33323 46.2661 3.74169 49.304C4.16201 52.4304 5.04766 54.9611 7.04329 56.9568C9.03894 58.9523 11.5695 59.8379 14.6959 60.2584C17.7338 60.6667 21.6155 60.6667 26.5162 60.6667H34.817C39.7178 60.6667 43.5994 60.6667 46.6373 60.2584C49.7637 59.8379 52.2944 58.9523 54.2901 56.9568C56.7549 54.4917 57.5405 51.1904 57.8258 46.9064C57.2885 47.1429 56.7053 47.2875 56.1042 47.324C55.9474 47.3336 55.7768 47.3333 55.5997 47.3333H55.5554H53.781C53.4776 50.9107 52.7909 52.7989 51.4616 54.1283C50.333 55.2568 48.7872 55.9333 46.1045 56.2939C43.364 56.6624 39.7514 56.6667 34.6666 56.6667H26.6666C21.5818 56.6667 17.9693 56.6624 15.2289 56.2939C12.546 55.9333 11.0003 55.2568 9.87171 54.1283C8.74315 52.9997 8.0667 51.4539 7.70601 48.7712C7.33755 46.0307 7.33331 42.4181 7.33331 37.3333C7.33331 32.2485 7.33755 28.636 7.70601 25.8956C8.0667 23.2127 8.74315 21.667 9.87171 20.5384C11.0003 19.4098 12.546 18.7334 15.2289 18.3727C17.9693 18.0042 21.5818 18 26.6666 18H34.6666C39.7514 18 43.364 18.0042 46.1045 18.3727C48.7872 18.7334 50.333 19.4098 51.4616 20.5384C52.7909 21.8678 53.4776 23.7561 53.781 27.3333H55.5554H55.5997ZM26.5162 14H34.817C36.1944 14 37.4912 14 38.7114 14.009L34.2669 11.0619C32.1314 9.64603 29.2018 9.64603 27.0666 11.0619L22.6218 14.009C23.842 14 25.1389 14 26.5162 14Z" fill="url(#paint2_linear_2099_1013)"/>
<path d="M16 24.6667C14.8954 24.6667 14 25.5621 14 26.6667C14 27.7712 14.8954 28.6667 16 28.6667H26.6667C27.7712 28.6667 28.6667 27.7712 28.6667 26.6667C28.6667 25.5621 27.7712 24.6667 26.6667 24.6667H16Z" fill="url(#paint3_linear_2099_1013)"/>
<path fill-rule="evenodd" clip-rule="evenodd" d="M50.6666 37.3334C50.6666 38.8062 49.4728 40 48 40C46.5272 40 45.3333 38.8062 45.3333 37.3334C45.3333 35.8606 46.5272 34.6667 48 34.6667C49.4728 34.6667 50.6666 35.8606 50.6666 37.3334Z" fill="url(#paint4_linear_2099_1013)"/>
<defs>
<linearGradient id="paint0_linear_2099_1013" x1="60.6667" y1="37.3333" x2="38" y2="37.3344" gradientUnits="userSpaceOnUse">
<stop stop-color="#FC1A70"/>
<stop offset="1" stop-color="#FFB901"/>
</linearGradient>
<linearGradient id="paint1_linear_2099_1013" x1="50.6666" y1="37.3334" x2="45.3333" y2="37.3336" gradientUnits="userSpaceOnUse">
<stop stop-color="#FC1A70"/>
<stop offset="1" stop-color="#FFB901"/>
</linearGradient>
<linearGradient id="paint2_linear_2099_1013" x1="57.8258" y1="33.3333" x2="3.33331" y2="33.3356" gradientUnits="userSpaceOnUse">
<stop stop-color="#FC1A70"/>
<stop offset="1" stop-color="#FFB901"/>
</linearGradient>
<linearGradient id="paint3_linear_2099_1013" x1="28.6667" y1="26.6667" x2="14" y2="26.6689" gradientUnits="userSpaceOnUse">
<stop stop-color="#FC1A70"/>
<stop offset="1" stop-color="#FFB901"/>
</linearGradient>
<linearGradient id="paint4_linear_2099_1013" x1="50.6666" y1="37.3334" x2="45.3333" y2="37.3336" gradientUnits="userSpaceOnUse">
<stop stop-color="#FC1A70"/>
<stop offset="1" stop-color="#FFB901"/>
</linearGradient>
</defs>
</svg>
