<svg width="25" height="25" viewBox="0 0 25 25" fill="none" xmlns="http://www.w3.org/2000/svg">
<path fill-rule="evenodd" clip-rule="evenodd" d="M5.249 2.54317C4.133 2.73018 3.211 3.54817 2.864 4.66017L2.77 4.96018V20.0402L2.864 20.3402C3.168 21.3162 3.899 22.0542 4.89 22.3862L5.17 22.4802L13.07 22.4912C18.475 22.4982 21.034 22.4882 21.173 22.4592C21.688 22.3532 22.288 21.8982 22.521 21.4372C22.74 21.0062 22.75 20.8972 22.75 18.9942L22.751 17.2402L22.892 17.1442C23.097 17.0042 23.419 16.6392 23.529 16.4222C23.729 16.0282 23.75 15.8422 23.749 14.5142C23.749 13.1832 23.724 12.9632 23.532 12.5852C23.416 12.3552 23.081 11.9782 22.888 11.8592L22.75 11.7732L22.749 10.0272C22.749 8.13118 22.735 7.98517 22.525 7.56917C22.375 7.27417 21.948 6.86217 21.63 6.70717C21.4486 6.62354 21.257 6.56435 21.06 6.53118L20.75 6.48217L20.749 5.38118C20.749 4.19117 20.72 3.95517 20.531 3.58317C20.396 3.31617 20.047 2.94917 19.767 2.78117C19.276 2.48517 19.795 2.50417 12.23 2.50717C8.501 2.50817 5.359 2.52517 5.249 2.54317ZM18.75 5.50017V6.50117L12.1 6.49017L5.45 6.48018L5.266 6.37218C4.685 6.03018 4.583 5.27417 5.054 4.80317C5.15603 4.6948 5.28257 4.61249 5.423 4.56318C5.582 4.51418 6.579 4.50517 12.18 4.50317L18.75 4.50017V5.50017ZM4.97 8.41017C5.157 8.47517 5.679 8.48117 12.96 8.49118L20.75 8.50118V11.4932L19.48 11.5092C18.268 11.5252 18.195 11.5302 17.889 11.6242C17.4114 11.7733 16.9773 12.0367 16.6244 12.3915C16.2716 12.7462 16.0106 13.1817 15.864 13.6602C15.729 14.0942 15.729 14.9062 15.864 15.3402C16.0118 15.819 16.2732 16.2551 16.626 16.611C16.9788 16.9669 17.4125 17.2322 17.89 17.3842C18.153 17.4692 18.248 17.4762 19.46 17.4912L20.75 17.5072V20.5012L13.1 20.4902L5.45 20.4802L5.266 20.3722C5.15629 20.3053 5.05804 20.2212 4.975 20.1232C4.737 19.8112 4.75 20.1572 4.75 13.9952C4.75 10.8852 4.755 8.34018 4.76 8.34018C4.766 8.34118 4.86 8.37217 4.97 8.41017ZM21.75 14.5022V15.5032L20.1 15.4922L18.45 15.4802L18.266 15.3722C17.685 15.0302 17.583 14.2742 18.054 13.8032C18.346 13.5112 18.379 13.5062 20.18 13.5032L21.75 13.5002V14.5022Z" fill="url(#paint0_linear_2275_1545)"/>
<defs>
<linearGradient id="paint0_linear_2275_1545" x1="23.749" y1="12.4996" x2="2.77" y2="12.5005" gradientUnits="userSpaceOnUse">
<stop stop-color="#FC1A70"/>
<stop offset="1" stop-color="#FFB901"/>
</linearGradient>
</defs>
</svg>
